<svg xmlns="http://www.w3.org/2000/svg" xmlns:xlink="http://www.w3.org/1999/xlink" width="500" zoomAndPan="magnify" viewBox="0 0 375 374.999991" height="500" preserveAspectRatio="xMidYMid meet" version="1.0"><defs><g/><clipPath id="id1"><path d="M 77.960938 172.472656 L 294.710938 172.472656 L 294.710938 232.472656 L 77.960938 232.472656 Z M 77.960938 172.472656 " clip-rule="nonzero"/></clipPath></defs><g clip-path="url(#id1)"><path fill="#3d3d3d" d="M 186.335938 296.382812 C 126.59375 296.382812 77.960938 247.746094 77.960938 188.007812 C 77.960938 128.265625 126.59375 79.632812 186.335938 79.632812 C 246.074219 79.632812 294.710938 128.265625 294.710938 188.007812 C 294.710938 247.746094 246.074219 296.382812 186.335938 296.382812 Z M 186.335938 81.234375 C 127.449219 81.234375 79.5625 129.121094 79.5625 188.007812 C 79.5625 246.890625 127.449219 294.78125 186.335938 294.78125 C 245.21875 294.78125 293.109375 246.890625 293.109375 188.007812 C 293.109375 129.121094 245.21875 81.234375 186.335938 81.234375 Z M 186.335938 81.234375 " fill-opacity="1" fill-rule="nonzero"/></g><g fill="#3d3d3d" fill-opacity="1"><g transform="translate(114.372745, 115.401331)"><g><path d="M 7.34375 -6.578125 L 3.234375 -11.171875 L 4.671875 -6.625 L 3.390625 -5.484375 L -0.96875 -7.40625 L 3.140625 -2.8125 L 0.75 -0.671875 L -7.0625 -9.40625 L -4.453125 -11.75 L 1.109375 -9.328125 L -0.671875 -15.140625 L 1.9375 -17.453125 L 9.75 -8.71875 Z M 7.34375 -6.578125 "/></g></g></g><g fill="#3d3d3d" fill-opacity="1"><g transform="translate(134.860529, 99.425948)"><g><path d="M 0.875 -0.484375 L -4.890625 -10.6875 L -2.09375 -12.28125 L 3.671875 -2.078125 Z M 0.875 -0.484375 "/></g></g></g><g fill="#3d3d3d" fill-opacity="1"><g transform="translate(150.356287, 91.771694)"><g><path d="M 0.953125 -0.3125 L -2.71875 -11.4375 L 0.328125 -12.453125 L 3.125 -4 L 8.171875 -5.65625 L 9.046875 -2.984375 Z M 0.953125 -0.3125 "/></g></g></g><g fill="#3d3d3d" fill-opacity="1"><g transform="translate(171.211585, 86.199339)"><g><path d="M -0.125 0.015625 L 3.09375 -12.078125 L 5.6875 -12.328125 L 11.15625 -1.078125 L 7.765625 -0.75 L 6.84375 -2.96875 L 3.734375 -2.65625 L 3.265625 -0.3125 Z M 4.71875 -8.859375 L 4.015625 -4.84375 L 6.125 -5.046875 Z M 4.71875 -8.859375 "/></g></g></g><g fill="#3d3d3d" fill-opacity="1"><g transform="translate(194.078005, 85.312424)"><g><path d="M 4.96875 -5.109375 L 4.171875 0.59375 L 0.984375 0.140625 L 2.609375 -11.46875 L 5.109375 -11.125 L 8.9375 -4.5625 L 9.765625 -10.46875 L 12.953125 -10.015625 L 11.328125 1.59375 L 8.78125 1.234375 Z M 4.96875 -5.109375 "/></g></g></g><g fill="#3d3d3d" fill-opacity="1"><g transform="translate(217.854803, 90.177374)"><g><path d="M 9.75 0.75 L 8.734375 3.375 L 0.9375 0.359375 L 5.171875 -10.5625 L 12.8125 -7.59375 L 11.796875 -4.984375 L 7.15625 -6.78125 L 6.5625 -5.25 L 10.53125 -3.71875 L 9.59375 -1.28125 L 5.625 -2.8125 L 4.953125 -1.09375 Z M 6.84375 -11.484375 L 9.265625 -12.578125 L 11.375 -11.765625 L 12.421875 -9.328125 L 10.671875 -9.25 L 9.75 -10.734375 L 8.078125 -10.265625 Z M 6.84375 -11.484375 "/></g></g></g><g fill="#3d3d3d" fill-opacity="1"><g transform="translate(237.63722, 99.221186)"><g><path d="M 11.109375 -2.0625 C 10.953125 -2.414062 10.769531 -2.75 10.5625 -3.0625 C 10.382812 -3.332031 10.171875 -3.613281 9.921875 -3.90625 C 9.679688 -4.207031 9.414062 -4.457031 9.125 -4.65625 C 8.894531 -4.8125 8.679688 -4.90625 8.484375 -4.9375 C 8.296875 -4.96875 8.144531 -4.894531 8.03125 -4.71875 C 7.945312 -4.59375 7.914062 -4.457031 7.9375 -4.3125 C 7.96875 -4.175781 8.035156 -4.019531 8.140625 -3.84375 C 8.253906 -3.675781 8.398438 -3.488281 8.578125 -3.28125 C 8.753906 -3.070312 8.957031 -2.816406 9.1875 -2.515625 C 9.550781 -2.097656 9.859375 -1.679688 10.109375 -1.265625 C 10.359375 -0.859375 10.535156 -0.457031 10.640625 -0.0625 C 10.742188 0.320312 10.757812 0.71875 10.6875 1.125 C 10.613281 1.539062 10.421875 1.984375 10.109375 2.453125 C 9.722656 3.023438 9.289062 3.441406 8.8125 3.703125 C 8.332031 3.960938 7.832031 4.09375 7.3125 4.09375 C 6.800781 4.09375 6.285156 4 5.765625 3.8125 C 5.253906 3.625 4.773438 3.378906 4.328125 3.078125 C 3.972656 2.835938 3.625 2.566406 3.28125 2.265625 C 2.945312 1.960938 2.628906 1.632812 2.328125 1.28125 C 2.023438 0.9375 1.75 0.582031 1.5 0.21875 C 1.25 -0.144531 1.035156 -0.515625 0.859375 -0.890625 L 3.578125 -2.46875 C 3.765625 -2.050781 3.984375 -1.648438 4.234375 -1.265625 C 4.421875 -0.941406 4.664062 -0.597656 4.96875 -0.234375 C 5.269531 0.128906 5.609375 0.441406 5.984375 0.703125 C 6.285156 0.890625 6.515625 0.984375 6.671875 0.984375 C 6.835938 0.984375 6.960938 0.914062 7.046875 0.78125 C 7.140625 0.644531 7.160156 0.488281 7.109375 0.3125 C 7.066406 0.144531 6.96875 -0.0390625 6.8125 -0.25 C 6.664062 -0.457031 6.484375 -0.6875 6.265625 -0.9375 C 6.054688 -1.1875 5.84375 -1.457031 5.625 -1.75 C 5.289062 -2.175781 5.019531 -2.578125 4.8125 -2.953125 C 4.613281 -3.328125 4.484375 -3.691406 4.421875 -4.046875 C 4.367188 -4.398438 4.382812 -4.742188 4.46875 -5.078125 C 4.550781 -5.410156 4.710938 -5.757812 4.953125 -6.125 C 5.316406 -6.664062 5.738281 -7.078125 6.21875 -7.359375 C 6.695312 -7.640625 7.191406 -7.800781 7.703125 -7.84375 C 8.222656 -7.894531 8.75 -7.847656 9.28125 -7.703125 C 9.8125 -7.554688 10.316406 -7.320312 10.796875 -7 C 11.148438 -6.757812 11.472656 -6.488281 11.765625 -6.1875 C 12.066406 -5.882812 12.335938 -5.578125 12.578125 -5.265625 C 12.828125 -4.953125 13.046875 -4.640625 13.234375 -4.328125 C 13.429688 -4.023438 13.601562 -3.75 13.75 -3.5 Z M 11.109375 -2.0625 "/></g></g></g><g fill="#3d3d3d" fill-opacity="1"><g transform="translate(255.278366, 112.75267)"><g/></g></g><g fill="#3d3d3d" fill-opacity="1"><g transform="translate(157.140156, 212.249986)"><g><path d="M 58.863281 -59.527344 L 52.761719 -59.527344 L 30.304688 -6.890625 L 7.804688 -59.527344 L 1.039062 -59.527344 C 1.039062 -59.527344 3.488281 -58.367188 3.488281 -54.007812 L 3.488281 -5.8125 C 3.488281 -0.871094 1.785156 -0.0429688 1.785156 -0.0429688 L 6.183594 -0.0429688 C 6.183594 -0.0429688 4.441406 -0.871094 4.441406 -5.8125 C 4.441406 -5.8125 4.484375 -54.960938 4.484375 -55.378906 C 4.691406 -54.960938 28.644531 -0.0429688 28.644531 -0.0429688 C 28.644531 -0.0429688 51.847656 -55.003906 52.058594 -55.460938 L 52.058594 -5.8125 C 52.058594 -0.871094 50.355469 -0.0429688 50.355469 -0.0429688 L 58.863281 -0.0429688 C 58.863281 -0.0429688 57.121094 -0.871094 57.121094 -5.8125 L 57.121094 -54.050781 C 57.121094 -58.988281 58.863281 -59.527344 58.863281 -59.527344 Z M 58.863281 -59.527344 "/></g></g></g><g fill="#3d3d3d" fill-opacity="1"><g transform="translate(147.341059, 292.269957)"><g><path d="M 8.8125 0.109375 L 7.9375 2.6875 L 0.90625 0.3125 L 1.78125 -2.265625 L 3.9375 -1.546875 L 4.953125 -4.5625 C 4.835938 -4.46875 4.660156 -4.394531 4.421875 -4.34375 C 4.191406 -4.289062 3.9375 -4.253906 3.65625 -4.234375 C 3.382812 -4.210938 3.113281 -4.210938 2.84375 -4.234375 C 2.582031 -4.253906 2.359375 -4.300781 2.171875 -4.375 L 3.0625 -7 C 3.195312 -6.945312 3.410156 -6.929688 3.703125 -6.953125 C 4.003906 -6.972656 4.304688 -7.015625 4.609375 -7.078125 C 4.910156 -7.140625 5.191406 -7.21875 5.453125 -7.3125 C 5.710938 -7.40625 5.894531 -7.507812 6 -7.625 L 8.9375 -6.625 L 6.875 -0.546875 Z M 8.8125 0.109375 "/></g></g></g><g fill="#3d3d3d" fill-opacity="1"><g transform="translate(169.241617, 298.168839)"><g><path d="M 1.015625 -5.0625 C 1.078125 -5.613281 1.242188 -6.117188 1.515625 -6.578125 C 1.785156 -7.035156 2.128906 -7.421875 2.546875 -7.734375 C 2.960938 -8.046875 3.4375 -8.273438 3.96875 -8.421875 C 4.507812 -8.578125 5.082031 -8.617188 5.6875 -8.546875 C 6.375 -8.460938 6.960938 -8.269531 7.453125 -7.96875 C 7.953125 -7.664062 8.351562 -7.25 8.65625 -6.71875 C 8.96875 -6.195312 9.175781 -5.582031 9.28125 -4.875 C 9.382812 -4.164062 9.390625 -3.375 9.296875 -2.5 C 9.179688 -1.5625 8.984375 -0.734375 8.703125 -0.015625 C 8.421875 0.691406 8.050781 1.273438 7.59375 1.734375 C 7.144531 2.203125 6.625 2.546875 6.03125 2.765625 C 5.4375 2.984375 4.785156 3.050781 4.078125 2.96875 C 2.691406 2.8125 1.550781 2.164062 0.65625 1.03125 L 2.546875 -0.734375 C 3.054688 -0.0859375 3.679688 0.273438 4.421875 0.359375 C 4.941406 0.421875 5.367188 0.304688 5.703125 0.015625 C 6.035156 -0.265625 6.242188 -0.679688 6.328125 -1.234375 C 5.890625 -0.921875 5.300781 -0.804688 4.5625 -0.890625 C 3.988281 -0.953125 3.46875 -1.101562 3 -1.34375 C 2.539062 -1.59375 2.15625 -1.898438 1.84375 -2.265625 C 1.539062 -2.640625 1.3125 -3.066406 1.15625 -3.546875 C 1.007812 -4.023438 0.960938 -4.53125 1.015625 -5.0625 Z M 5.40625 -6.015625 C 5.226562 -6.035156 5.050781 -6.015625 4.875 -5.953125 C 4.695312 -5.898438 4.539062 -5.8125 4.40625 -5.6875 C 4.269531 -5.570312 4.15625 -5.429688 4.0625 -5.265625 C 3.96875 -5.097656 3.910156 -4.921875 3.890625 -4.734375 C 3.847656 -4.359375 3.941406 -4.023438 4.171875 -3.734375 C 4.410156 -3.441406 4.71875 -3.273438 5.09375 -3.234375 C 5.46875 -3.191406 5.796875 -3.285156 6.078125 -3.515625 C 6.367188 -3.742188 6.535156 -4.046875 6.578125 -4.421875 C 6.597656 -4.609375 6.582031 -4.796875 6.53125 -4.984375 C 6.488281 -5.171875 6.410156 -5.332031 6.296875 -5.46875 C 6.191406 -5.613281 6.0625 -5.734375 5.90625 -5.828125 C 5.75 -5.929688 5.582031 -5.992188 5.40625 -6.015625 Z M 5.40625 -6.015625 "/></g></g></g><g fill="#3d3d3d" fill-opacity="1"><g transform="translate(192.608097, 299.32454)"><g><path d="M 8.765625 -4.46875 C 8.828125 -3.914062 8.769531 -3.40625 8.59375 -2.9375 C 8.414062 -2.46875 8.144531 -2.050781 7.78125 -1.6875 C 7.425781 -1.320312 7 -1.023438 6.5 -0.796875 C 6.007812 -0.566406 5.46875 -0.421875 4.875 -0.359375 C 4.320312 -0.296875 3.773438 -0.328125 3.234375 -0.453125 C 2.703125 -0.578125 2.222656 -0.78125 1.796875 -1.0625 C 1.378906 -1.351562 1.03125 -1.71875 0.75 -2.15625 C 0.46875 -2.59375 0.296875 -3.097656 0.234375 -3.671875 C 0.203125 -3.960938 0.210938 -4.234375 0.265625 -4.484375 C 0.328125 -4.734375 0.414062 -4.960938 0.53125 -5.171875 C 0.644531 -5.390625 0.769531 -5.585938 0.90625 -5.765625 C 1.050781 -5.953125 1.195312 -6.109375 1.34375 -6.234375 C 1.007812 -6.390625 0.722656 -6.632812 0.484375 -6.96875 C 0.253906 -7.300781 0.125 -7.65625 0.09375 -8.03125 C 0.03125 -8.570312 0.101562 -9.0625 0.3125 -9.5 C 0.519531 -9.945312 0.796875 -10.332031 1.140625 -10.65625 C 1.492188 -10.988281 1.894531 -11.25 2.34375 -11.4375 C 2.800781 -11.632812 3.242188 -11.757812 3.671875 -11.8125 C 4.109375 -11.851562 4.566406 -11.820312 5.046875 -11.71875 C 5.535156 -11.625 5.988281 -11.457031 6.40625 -11.21875 C 6.820312 -10.988281 7.175781 -10.675781 7.46875 -10.28125 C 7.757812 -9.894531 7.929688 -9.429688 7.984375 -8.890625 C 8.023438 -8.515625 7.960938 -8.132812 7.796875 -7.75 C 7.640625 -7.363281 7.421875 -7.0625 7.140625 -6.84375 C 7.304688 -6.75 7.476562 -6.625 7.65625 -6.46875 C 7.84375 -6.320312 8.007812 -6.148438 8.15625 -5.953125 C 8.300781 -5.753906 8.429688 -5.53125 8.546875 -5.28125 C 8.660156 -5.039062 8.734375 -4.769531 8.765625 -4.46875 Z M 5.671875 -4.34375 C 5.640625 -4.6875 5.5 -4.9375 5.25 -5.09375 C 5 -5.257812 4.703125 -5.328125 4.359375 -5.296875 C 4.015625 -5.253906 3.742188 -5.125 3.546875 -4.90625 C 3.347656 -4.695312 3.265625 -4.425781 3.296875 -4.09375 C 3.328125 -3.78125 3.46875 -3.523438 3.71875 -3.328125 C 3.96875 -3.140625 4.257812 -3.066406 4.59375 -3.109375 C 4.945312 -3.140625 5.222656 -3.273438 5.421875 -3.515625 C 5.617188 -3.753906 5.703125 -4.03125 5.671875 -4.34375 Z M 3.171875 -8.296875 C 3.203125 -8.003906 3.316406 -7.800781 3.515625 -7.6875 C 3.710938 -7.582031 3.914062 -7.539062 4.125 -7.5625 C 4.34375 -7.582031 4.539062 -7.664062 4.71875 -7.8125 C 4.894531 -7.96875 4.96875 -8.191406 4.9375 -8.484375 C 4.914062 -8.691406 4.8125 -8.859375 4.625 -8.984375 C 4.445312 -9.117188 4.222656 -9.175781 3.953125 -9.15625 C 3.691406 -9.125 3.488281 -9.023438 3.34375 -8.859375 C 3.207031 -8.691406 3.148438 -8.503906 3.171875 -8.296875 Z M 3.171875 -8.296875 "/></g></g></g><g fill="#3d3d3d" fill-opacity="1"><g transform="translate(216.014649, 295.318554)"><g><path d="M 2.46875 -7.765625 L -1.640625 -6.390625 L -2.515625 -9.015625 L 6.125 -11.90625 L 4.484375 0.625 L 1.21875 1.71875 Z M 2.46875 -7.765625 "/></g></g></g></svg>